<?xml version="1.0" ?><!DOCTYPE svg  PUBLIC '-//W3C//DTD SVG 20010904//EN'  'http://www.w3.org/TR/2001/REC-SVG-20010904/DTD/svg10.dtd'><svg height="512.000000pt" preserveAspectRatio="xMidYMid meet" version="1.0" viewBox="0 0 512.000000 512.000000" width="512.000000pt" xmlns="http://www.w3.org/2000/svg"><g fill="#000000" stroke="none" transform="translate(0.000000,512.000000) scale(0.100000,-0.100000)"><path d="M2285 4898 c-311 -35 -683 -165 -955 -333 -220 -137 -472 -361 -622 -555 -256 -331 -417 -712 -480 -1135 -20 -136 -17 -512 5 -655 103 -665 471 -1245 1027 -1616 287 -191 623 -320 966 -371 164 -24 504 -24 668 0 411 61 815 237 1136 494 459 368 764 897 857 1485 25 159 25 537 0 696 -83 524 -329 995 -708 1356 -370 352 -861 581 -1361 635 -114 13 -419 12 -533 -1z m715 -695 c54 -31 64 -85 24 -132 -20 -24 -36 -32 -75 -37 l-49 -7 2 -301 3 -301 45 -11 c66 -17 215 -80 290 -124 264 -154 483 -413 592 -700 112 -296 111 -680 -2 -965 -108 -273 -281 -489 -521 -651 -120 -81 -54 -74 -753 -74 l-625 0 -43 22 c-314 164 -579 514 -659 871 -31 139 -34 169 -34 337 1 297 73 516 255 780 61 89 242 267 336 330 96 64 255 140 352 170 l72 22 0 299 0 299 -25 0 c-38 0 -90 25 -109 51 -26 37 -20 77 15 110 l31 29 425 0 c378 0 428 -2 453 -17z"/><path d="M2317 4023 c-4 -3 -7 -165 -7 -359 l0 -353 -42 -11 c-220 -58 -358 -128 -508 -258 -114 -99 -201 -204 -268 -322 -29 -52 -92 -202 -92 -219 0 -4 26 -4 58 0 224 31 1744 37 2111 9 79 -6 145 -9 147 -8 1 2 -14 44 -35 93 -69 164 -184 320 -331 447 -150 130 -288 200 -507 258 l-43 11 0 359 0 360 -238 0 c-131 0 -242 -3 -245 -7z"/></g></svg>