<svg id="Capa_1" enable-background="new 0 0 513 513" height="512" viewBox="0 0 513 513" width="512" xmlns="http://www.w3.org/2000/svg"><g><g><g><path d="m415.135 70.349-.048.443c-26.148-26.387-62.391-42.752-102.474-42.752h-112.226c-39.461 0-75.223 15.841-101.272 41.511l.755.504c-52.248 9.589-91.87 55.273-91.87 110.292v232.468c0 39.845 32.3 72.145 72.145 72.145 38.858 0 70.452-30.743 71.997-69.222l.154 1.038c28.662 22.62 64.856 36.12 104.203 36.12 21.064 0 40.932-4.919 58.739-13.452l.57.079c11.803 8.42 26.249 13.373 41.852 13.373 5.675 0 11.139-.811 16.437-2.051l-.36 3.335c13.048 18.612 34.661 30.78 59.117 30.78 39.845 0 72.145-32.3 72.145-72.145v-232.468c.001-54.324-38.597-99.633-89.864-109.998z" fill="#beebeb"/></g><g><path d="m392.774 340.669s-8.016 64.129-72.145 96.194c0 0 56.113 40.081 104.21-24.048 0 0-32.065-40.081-32.065-72.146z" fill="#00d2dc"/></g><g><path d="m176.339 108.202c0-22.136-17.945-40.081-40.081-40.081h-35.548c-.516.494-1.087.929-1.595 1.43l.755.504c-52.248 9.589-91.87 55.273-91.87 110.292v230.113c0 38.036 28.447 71.322 66.368 74.275 41.458 3.228 76.153-28.628 77.774-68.997l.154 1.038c40.074 36.12 104.203 36.12 104.203 36.12-49.732-29.839-80.161-83.583-80.161-141.58v-203.114z" fill="#00d2dc"/></g><g><path d="m392.774 316.621c-17.709 0-32.065-14.356-32.065-32.064v-16.032h64.129v16.032c.001 17.708-14.355 32.064-32.064 32.064z" fill="#0096d2"/></g><g><circle cx="232.452" cy="200.387" fill="#0096d2" r="28.056"/></g><g><circle cx="256.5" cy="197.882" fill="#fff" r="12.024"/></g><g><circle cx="388.766" cy="200.387" fill="#0096d2" r="28.056"/></g><g><circle cx="416.823" cy="193.704" fill="#fff" r="12.024"/></g><g><circle cx="312.613" cy="308.605" fill="#00d2dc" r="8.016"/></g><g><circle cx="288.565" cy="292.573" fill="#00d2dc" r="8.016"/></g></g><g fill="#283c64"><path d="m418.368 62.859c-27.414-26.492-64.712-42.819-105.755-42.819h-112.226c-39.8 0-77.348 15.217-105.902 42.864-53.964 11.819-94.485 59.984-94.485 117.443v232.468c0 44.192 35.953 80.145 80.146 80.145 37.946 0 69.793-26.517 78.045-61.987 29.061 19.614 62.779 29.923 98.31 29.923 20.777 0 40.539-4.423 58.404-12.363 12.791 8.094 27.476 12.363 42.757 12.363 3.566 0 7.091-.241 10.56-.697 15.085 20.544 39.11 32.761 64.634 32.761 44.192 0 80.145-35.953 80.145-80.145v-232.468c-.001-56.438-39.699-105.573-94.633-117.488zm-258.078 349.973c0-.006 0-.011 0-.017v-280.565c0-8.849 7.199-16.048 16.048-16.048 4.418 0 8-3.582 8-8s-3.582-8-8-8c-17.671 0-32.048 14.376-32.048 32.048v280.564c0 35.37-28.775 64.145-64.146 64.145-35.369.001-64.144-28.774-64.144-64.144v-232.468c0-57.47 46.756-104.226 104.226-104.226h32.064c4.418 0 8-3.582 8-8s-3.582-8-8-8h-29.31c22.594-15.649 49.377-24.081 77.406-24.081h112.226c75.151 0 136.291 61.14 136.291 136.291v136.274c0 4.418 3.582 8 8 8s8-3.582 8-8v-136.274c0-31.745-9.769-61.249-26.451-85.674 35.038 17.146 58.548 53.251 58.548 93.69v152.323h-64.145c-4.418 0-8 3.582-8 8s3.582 8 8 8h16.048v16.56c-2.566-.315-5.242-.495-8.032-.495-4.418 0-8 3.582-8 8s3.582 8 8 8c2.827 0 5.505.248 8.032.667v38.014c0 2.803-1.986 3.942-2.839 4.301-.863.364-3.09.994-5.119-.989-17.517-17.118-38.236-47.991-40.031-98.938 18.202-3.772 31.924-19.929 31.924-39.231v-16.032c0-.001 0-.003 0-.004s0-.002 0-.004c0-16.585-9.234-31.286-23.068-38.873 4.881-3.498 8.917-8.2 11.576-13.797 1.896-3.991.198-8.763-3.792-10.659s-8.763-.199-10.659 3.792c-3.309 6.964-10.426 11.464-18.13 11.464-10.147 0-18.538-7.582-19.856-17.374-.113-.922-.19-1.854-.195-2.802.053-8.886 5.91-16.416 13.967-18.987 3.28-.616 6.654-.95 10.092-.95 16.929 0 32.462 7.719 41.552 20.649 1.558 2.215 4.035 3.4 6.552 3.4 1.589 0 3.195-.473 4.594-1.456 3.615-2.541 4.485-7.531 1.944-11.146-12.082-17.187-32.509-27.448-54.642-27.448s-42.56 10.261-54.642 27.448c-2.541 3.615-1.67 8.604 1.944 11.146 3.614 2.541 8.604 1.671 11.146-1.944.475-.676.978-1.329 1.487-1.976v1.383c0 1.572.112 3.117.308 4.636 2.207 17.978 16.419 32.574 34.787 34.87l4.233.529c11.394 1.424 20.526 9.546 23.644 20.103h-54.972c-4.418 0-8 3.582-8 8v16.032c0 19.28 13.691 35.421 31.862 39.217-3.724 67.416-59.741 121.122-128.072 121.122-35.128-.002-68.307-11.078-96.208-32.066zm232.484-104.211c-13.27 0-24.065-10.795-24.065-24.064v-8.032h48.129v8.032c.001 13.269-10.795 24.064-24.064 24.064zm-35.113 136.275c-8.96 0-17.661-1.837-25.698-5.359 26.923-16.59 48.007-41.772 59.409-71.696 5.184 18.753 12.902 33.916 21.257 45.991-11.587 19.263-32.277 31.064-54.968 31.064zm75.194 32.064c-18.155 0-35.365-7.725-47.448-20.989 15.057-5.532 28.209-15.512 37.646-28.854 2.258 2.544 4.507 4.9 6.709 7.053 4.004 3.913 9.115 5.96 14.372 5.96 2.718 0 5.476-.548 8.138-1.668 7.791-3.28 12.631-10.579 12.631-19.048v-32.488c6.452 3.498 10.105 7.202 10.239 7.34 1.572 1.661 3.688 2.5 5.811 2.5 1.961 0 3.927-.717 5.47-2.164 3.223-3.021 3.386-8.084.365-11.308-.476-.508-8.293-8.676-21.885-14.005v-20.62h32.097v64.145c0 35.371-28.775 64.146-64.145 64.146z"/><path d="m257.8 214.83c-3.093-3.156-8.158-3.208-11.313-.115-3.771 3.694-8.755 5.729-14.035 5.729-11.059 0-20.057-8.997-20.057-20.056s8.998-20.057 20.057-20.057c16.93 0 32.463 7.719 41.552 20.649 1.558 2.216 4.035 3.4 6.552 3.4 1.589 0 3.195-.473 4.594-1.456 3.615-2.541 4.485-7.531 1.944-11.146-12.082-17.187-32.508-27.448-54.642-27.448s-42.56 10.261-54.642 27.448c-2.541 3.615-1.67 8.604 1.944 11.146 3.614 2.541 8.604 1.671 11.146-1.944 1.79-2.547 3.839-4.883 6.091-7.006-.376 2.084-.595 4.222-.595 6.414 0 19.881 16.175 36.056 36.057 36.056 9.492 0 18.453-3.658 25.232-10.3 3.155-3.093 3.207-8.158.115-11.314z"/><path d="m336.661 332.67h-96.193c-4.418 0-8 3.582-8 8s3.582 8 8 8h96.193c4.418 0 8-3.582 8-8s-3.581-8-8-8z"/><path d="m328.645 364.734c-38.261 0-61.177 25.687-62.133 26.78-2.902 3.316-2.565 8.343.74 11.257 1.518 1.338 3.402 1.995 5.281 1.995 2.213 0 4.418-.912 6-2.694.19-.213 19.311-21.338 50.112-21.338 4.418 0 8-3.582 8-8s-3.582-8-8-8z"/></g></g></svg>