<svg id="Capa_1" enable-background="new 0 0 512.964 512.964" height="512" viewBox="0 0 512.964 512.964" width="512" xmlns="http://www.w3.org/2000/svg"><g><g><g><path d="m424.801 131.817v-107.735c0-13.21-15.081-20.75-25.649-12.825l-102.594 76.946h-109.541c-12.14 0-23.952-3.938-33.663-11.221l-87.634-65.725c-10.568-7.926-25.649-.385-25.649 12.825v256.486c0 105.925 100.478 224.425 224.425 224.425 106.24 0 192.364-86.125 192.364-192.364v-96.183c.001-32.471-12.163-62.035-32.059-84.629z" fill="#beebeb"/></g><g><circle cx="296.558" cy="392.751" fill="#00d2dc" r="48.091"/></g><g><g><path d="m120.224 296.569v-160.304l-80.152-64.121v208.424c0 122.851 98.725 222.588 221.159 224.343-82.624-33.115-141.007-113.886-141.007-208.342z" fill="#00d2dc"/></g></g><g><path d="m296.558 368.705c-17.707 0-32.061-14.354-32.061-32.061v-8.015h64.122v8.015c0 17.707-14.354 32.061-32.061 32.061z" fill="#0096d2"/></g><g><circle cx="208.391" cy="272.523" fill="#0096d2" r="32.061"/></g><g><circle cx="232.436" cy="264.508" fill="#fff" r="16.03"/></g><g><circle cx="368.694" cy="272.523" fill="#0096d2" r="32.061"/></g><g><circle cx="384.725" cy="264.508" fill="#fff" r="16.03"/></g><g><g><path d="m40.072 24.052v192.364l60.862-49.797c15.61-12.772 19.296-35.154 8.607-52.257l-63.459-102.722c-3.559 2.843-6.01 7.14-6.01 12.412z" fill="#0096d2"/></g></g><g><path d="m264.497 408.781v8.015c0 17.706 14.354 32.061 32.061 32.061s32.061-14.354 32.061-32.061v-8.015l-32.061-16.03z" fill="#0096d2"/></g></g><g fill="#283c64"><path d="m232.421 344.66c0-4.418-3.582-8-8-8h-128.243c-4.418 0-8 3.582-8 8s3.582 8 8 8h128.243c4.419 0 8-3.582 8-8z"/><path d="m472.892 336.66h-96.182c-4.418 0-8 3.582-8 8s3.582 8 8 8h67.776c-2.709 12.203-6.659 24.056-11.751 35.384-20.177-12.741-39.369-20.866-40.574-21.372-4.074-1.709-8.763.209-10.472 4.282-1.709 4.075.208 8.763 4.283 10.472.286.12 19.826 8.391 39.532 20.995-10.599 18.965-24.55 36.092-41.33 50.425-33.307 28.45-75.809 44.118-119.677 44.118-69.587 0-134.357-33.197-175.097-89.23 49.577-18.506 95.123-22.994 95.692-23.047 4.398-.413 7.629-4.311 7.218-8.709-.412-4.399-4.311-7.633-8.709-7.221-3.033.283-75.013 7.335-139.282 41.652-3.897 2.081-5.37 6.927-3.289 10.825 1.44 2.698 4.206 4.234 7.064 4.233 1.271 0 2.562-.304 3.761-.945 7.32-3.909 14.781-7.447 22.245-10.654 43.579 62.16 114.314 99.097 190.398 99.097 47.675 0 93.868-17.03 130.068-47.952 17.821-15.223 32.711-33.345 44.13-53.403 4.488 3.43 8.74 7.057 12.494 10.831 1.563 1.572 3.617 2.358 5.671 2.358 2.041 0 4.082-.775 5.642-2.328 3.132-3.116 3.146-8.182.029-11.314-4.925-4.951-10.536-9.631-16.391-13.966 6.607-14.158 11.562-29.099 14.699-44.528h12.051c4.418 0 8-3.582 8-8s-3.581-8.003-7.999-8.003z"/><path d="m60.742 382.736c1.125 0 2.269-.238 3.356-.742 4.01-1.856 5.755-6.612 3.898-10.621-13.221-28.552-19.925-59.113-19.925-90.834v-60.331l57.929-47.396c18.674-15.278 23.113-42.229 10.325-62.689l-58.744-93.988c1.177.225 2.314.725 3.339 1.493l87.633 65.725c11.023 8.269 24.684 12.821 38.464 12.821h141.602c66.302 0 120.243 53.941 120.243 120.243v96.183c0 4.418 3.582 7.998 8 7.998s8-3.584 8-8.002v-96.179c0-33.373-12.069-63.975-32.061-87.69v-104.674c0-9.161-5.09-17.396-13.284-21.494-8.193-4.096-17.836-3.228-25.165 2.269l-100.46 75.346h-106.875c-10.341 0-20.592-3.417-28.864-9.621l-87.633-65.725c-7.329-5.497-16.972-6.365-25.165-2.269-8.194 4.097-13.284 12.332-13.284 21.493v256.486c0 34.06 7.202 66.883 21.406 97.558 1.353 2.921 4.245 4.64 7.265 4.64zm343.21-365.108c2.486-1.864 5.629-2.148 8.41-.758 2.779 1.39 4.439 4.075 4.439 7.183v88.599c-23.783-20.242-54.578-32.478-88.182-32.478h-8.061zm-355.88 13.479 54.685 87.496c1.302 2.083 2.332 4.266 3.106 6.507l-30.759-12.303c-4.103-1.641-8.758.354-10.399 4.457s.354 8.758 4.457 10.399l37.642 15.057c-.763 3.362-2.065 6.605-3.881 9.591h-30.79c-4.418 0-8 3.582-8 8s3.582 8 8 8h14.102l-38.163 31.225z"/><path d="m424.547 250.418c1.071-4.286-1.535-8.63-5.821-9.701l-18.911-4.728c-25.808-6.45-52.917 3.034-67.463 23.604-7.676 10.854-11.733 23.641-11.733 36.977v24.061h-48.122v-16.046c0-2.191-.1-4.401-.296-6.57-1.856-20.529-13.054-38.933-30.721-50.494-18.506-12.109-42.045-15.177-62.965-8.203l-28.76 9.586c-4.191 1.397-6.457 5.928-5.06 10.119 1.397 4.192 5.928 6.458 10.119 5.06l17.198-5.733c-1.676 4.443-2.582 9.226-2.582 14.174 0 22.09 17.971 40.061 40.061 40.061 6.494 0 12.946-1.592 18.66-4.604 3.908-2.061 5.407-6.899 3.347-10.808-2.06-3.908-6.898-5.407-10.808-3.347-3.472 1.83-7.24 2.758-11.199 2.758-13.267 0-24.061-10.793-24.061-24.061 0-8.601 4.495-16.4 11.831-20.725 3.716-.268 7.45-.181 11.144.272v20.453c0 4.418 3.582 8 8 8s8-3.582 8-8v-16.096c2.878 1.255 5.663 2.747 8.313 4.481 13.551 8.867 22.134 22.917 23.547 38.546.153 1.691.23 3.417.23 5.128v24.046 8.015c0 19.351 13.792 35.54 32.061 39.257v4.827c0 10.87-14.689 20.053-32.076 20.053s-32.076-9.183-32.076-20.053c0-4.418-3.582-8-8-8s-8 3.582-8 8c0 20.217 21.118 36.053 48.076 36.053h.015v.016c0 22.089 17.971 40.061 40.061 40.061 22.089 0 40.061-17.971 40.061-40.061v-.739c18.269-3.346 32.061-17.915 32.061-35.33 0-4.418-3.582-8-8-8s-8 3.582-8 8c0 11.058-10.793 20.053-24.061 20.053s-24.061-8.995-24.061-20.053v-4.827c18.27-3.717 32.061-19.906 32.061-39.257v-8.015-32.061c0-10.009 3.042-19.601 8.796-27.738 3.969-5.613 9.237-10.098 15.279-13.285v16.978c0 4.418 3.582 8 8 8s8-3.582 8-8v-22.072c.397-.054.793-.109 1.192-.154 8.94 3.698 14.869 12.465 14.869 22.228 0 13.267-10.794 24.061-24.061 24.061-3.959 0-7.727-.928-11.199-2.758-3.908-2.06-8.747-.562-10.808 3.347-2.06 3.909-.562 8.747 3.347 10.808 5.714 3.012 12.167 4.604 18.66 4.604 22.09 0 40.061-17.971 40.061-40.061 0-6.791-1.73-13.291-4.82-19.012l10.91 2.728c4.289 1.07 8.632-1.537 9.704-5.823zm-103.928 165.64v.739c0 13.267-10.794 24.061-24.061 24.061s-24.061-10.793-24.061-24.061v-2c6.01-1.545 11.444-3.94 16.061-7.009v9.009c0 4.418 3.582 8 8 8s8-3.582 8-8v-7.263c4.669 3.166 10.128 5.437 16.061 6.524zm0-79.414c0 13.268-10.794 24.061-24.061 24.061s-24.061-10.793-24.061-24.061v-.015h48.122z"/></g></g></svg>