<svg id="Capa_1" enable-background="new 0 0 512 512" height="512" viewBox="0 0 512 512" width="512" xmlns="http://www.w3.org/2000/svg"><g><path d="m60.793 421.628c-37.918-44.645-60.793-102.465-60.793-165.628 0-141.385 114.615-256 256-256s256 114.615 256 256c0 63.163-22.875 120.983-60.793 165.628-60.542-11.132-126.37-17.238-195.207-17.238s-134.665 6.106-195.207 17.238z" fill="#07a9f0"/><path d="m62.053 423.101c.098-.117.196-.233.295-.35 50.615-59.729 116.5-67.167 193.652-108.575 77.152 41.408 143.037 48.847 193.652 108.575.099.117.197.233.295.35-46.946 54.439-116.422 88.899-193.947 88.899s-147.001-34.46-193.947-88.899z" fill="#b9801b"/><path d="m449.652 422.751c.099.117.197.233.295.35-46.946 54.439-116.422 88.899-193.947 88.899-59.428 0-114.127-20.25-157.572-54.226 51.467-67.55 115.999-83.459 190.579-127.389 63.028 28.479 117.408 41.344 160.645 92.366z" fill="#c88a1d"/><path d="m354.994 384.489c-.051.117-.102.233-.153.35-7.178 16.351-38.878 64.686-46.986 83.115-3.529-4.379-6.951-8.286-10.28-11.866-13.425 10.691-27.812 21.54-43.048 37.326-14.276-14.791-27.807-25.248-40.499-35.301-1.934 3.316-3.885 6.835-5.849 10.612-23.211-33.377-42.4-42.353-59.747-80.319-3.001-6.567 205.487-6.323 206.562-3.917z" fill="#eac23f"/><path d="m416.578 362.359c-13.122 9.597-25.117 20.631-35.576 33.077-14.103 16.782-35.248 27.448-58.884 27.448-10.515 0-20.536-2.111-29.664-5.932-11.118-4.654-22.971-7.308-35.024-7.295-.953.001-1.909.001-2.862 0-12.053-.012-23.906 2.641-35.024 7.295-9.128 3.821-19.149 5.932-29.664 5.932-23.637 0-44.783-10.667-58.886-27.45-10.442-12.426-22.41-23.453-35.513-33.031-53.501-39.103-79.367-97.077-62.542-153.643 5.341-17.956 440.999-17.553 446.302.61 16.453 56.351-9.393 114.027-62.663 152.989z" fill="#f5e8b4"/><path d="m216.6 418.114c-8.322 3.085-17.323 4.771-26.718 4.771-23.637 0-44.783-10.667-58.886-27.45-10.442-12.426-22.409-23.454-35.513-33.031-53.503-39.104-79.369-97.078-62.544-153.644.949-3.189 15.476-5.8 38.759-7.834-9.105 58.542 20.351 116.589 75.64 156.999 14.971 10.942 28.643 23.54 40.573 37.736 7.852 9.344 17.616 17.029 28.689 22.453z" fill="#f1de96"/><path d="m48.622 123.443c-28.549-31.25 29.554-89.354 60.804-60.804.702.641 1.392 1.3 2.069 1.978 18.962 18.962 23.779 47.757 15.719 76.614-28.858 8.06-57.652 3.243-76.614-15.719-.677-.678-1.336-1.368-1.978-2.069zm414.756 0c28.549-31.25-29.554-89.354-60.804-60.804-.702.641-1.392 1.3-2.069 1.978-18.962 18.962-23.779 47.757-15.719 76.614 28.858 8.06 57.652 3.243 76.614-15.719.677-.678 1.336-1.368 1.978-2.069z" fill="#b9801b"/><path d="m113.107 89.442c11.505 11.505 16.653 27.429 15.865 44.52-.495 2.418-1.081 4.843-1.758 7.268-25.562 7.14-51.074 4.176-69.748-9.774-12.142-26.245 30.292-65.242 53.946-43.634.576.526 1.141 1.066 1.695 1.62zm287.48-1.62c-.575.525-1.14 1.065-1.695 1.62-11.505 11.505-16.653 27.429-15.865 44.52.495 2.418 1.081 4.843 1.758 7.268 25.562 7.14 51.074 4.176 69.748-9.774 12.143-26.245-30.292-65.242-53.946-43.634z" fill="#edd578"/><path d="m474.249 182.988c7.571 12.066 11.876 25.919 11.876 40.651 0 46.758-43.37 84.663-96.869 84.663-33.818 0-63.588-15.146-80.915-38.1-15.644 2.314-31.968 3.562-48.877 3.613-1.154.003-2.309.005-3.464.005s-2.31-.002-3.464-.005c-17.24-.053-33.872-1.349-49.795-3.75-17.212 23.031-46.862 38.237-80.553 38.237-53.192 0-96.312-37.905-96.312-84.663 0-17.688 6.171-34.109 16.723-47.691 4.814-6.196 32.174-33.622 38.712-39.453 15.39-13.726 31.97-24.08 49.649-33.031 37.117-18.794 79.079-31.406 125.04-56.074 63.734 34.207 118.887 45.603 166.833 79.61 16.789 11.907 45.855 47.126 51.416 55.988z" fill="#df9d28"/><path d="m144.438 306.031c-7.142 1.484-14.592 2.271-22.25 2.271-53.192 0-96.312-37.905-96.312-84.663 0-17.688 6.171-34.109 16.723-47.691 4.814-6.196 32.174-33.622 38.712-39.454 15.39-13.726 31.97-24.08 49.649-33.031 37.117-18.793 79.079-31.405 125.04-56.073 7.527 4.04 14.934 7.761 22.224 11.239-37.312 17.729-71.731 29.122-102.765 44.834-17.679 8.951-34.259 19.305-49.649 33.031-6.538 5.832-33.898 33.258-38.712 39.454-10.552 13.582-16.723 30.003-16.723 47.691 0 40.026 31.598 73.564 74.063 82.392z" fill="#c88a1d"/><path d="m298.837 360.708c-12.01 2.417-27.424 3.626-42.837 3.626s-30.827-1.209-42.837-3.626c-4.061-.817-6.69-4.771-5.873-8.832s4.774-6.687 8.832-5.873c9.086 1.829 20.528 2.902 32.378 3.219v-62.417h15v62.417c11.85-.317 23.292-1.391 32.378-3.219 4.063-.818 8.015 1.813 8.832 5.873s-1.813 8.014-5.873 8.832z" fill="#eac23f"/><path d="m205.511 261.077h100.978c3.879 0 6.389 4.097 4.629 7.553l-.039.076c-12.636 24.727-27.57 36.408-44.438 48.012-6.413 4.412-14.868 4.412-21.282 0-16.868-11.604-31.802-23.286-44.438-48.013l-.039-.076c-1.76-3.455.75-7.552 4.629-7.552z" fill="#495959"/><path d="m311.118 268.63-.039.076c-10.223 20.004-21.95 31.471-34.989 41.266-3.002-.61-5.911-1.819-8.542-3.629-17.361-11.943-33.066-23.953-46.855-45.266h85.796c3.879 0 6.389 4.097 4.629 7.553z" fill="#607882"/><path d="m359.613 186.387c0 18.564-15.049 33.613-33.613 33.613s-33.613-15.049-33.613-33.613 15.049-33.613 33.613-33.613 33.613 15.049 33.613 33.613zm-173.613-33.613c-18.564 0-33.613 15.049-33.613 33.613s15.049 33.613 33.613 33.613 33.613-15.049 33.613-33.613-15.049-33.613-33.613-33.613z" fill="#c88a1d"/><path d="m343.577 194.445c0 8.284-6.716 15-15 15s-15-6.716-15-15 6.716-15 15-15 15 6.716 15 15zm-155-15c-8.284 0-15 6.716-15 15s6.716 15 15 15 15-6.716 15-15-6.716-15-15-15z" fill="#495959"/><path d="m340.168 181.11c5.216 0 9.445 4.229 9.445 9.445s-4.229 9.445-9.445 9.445-9.445-4.229-9.445-9.445 4.228-9.445 9.445-9.445zm-149.445 9.445c0 5.216 4.229 9.445 9.445 9.445s9.445-4.229 9.445-9.445-4.229-9.445-9.445-9.445-9.445 4.229-9.445 9.445z" fill="#fff5f5"/><path d="m212.059 171.091c-1.818-.744-3.352-2.182-4.172-4.137-4.03-9.618-15.133-14.165-24.753-10.132-3.91 1.637-8.407-.204-10.047-4.113-1.638-3.91.203-8.408 4.113-10.047 17.427-7.302 37.543.934 44.847 18.358 1.638 3.91-.203 8.408-4.113 10.047-1.955.819-4.058.768-5.875.024zm86.578 0c1.818-.744 3.352-2.182 4.172-4.137 4.03-9.618 15.133-14.165 24.753-10.132 3.91 1.637 8.407-.204 10.047-4.113 1.638-3.91-.203-8.408-4.113-10.047-17.427-7.302-37.543.934-44.847 18.358-1.638 3.91.203 8.408 4.113 10.047 1.955.819 4.057.768 5.875.024z" fill="#edd578"/><path d="m426.068 437.865c-.018.023-.035.045-.053.068-4.49 5.781-8.026 11.985-10.627 18.406-8.228 6.555-16.868 12.613-25.876 18.13 1.746-7.931 5.281-15.687 10.669-22.623 6.327-8.146 14.381-14.099 23.128-17.694 2.272-.933 4.268 1.775 2.759 3.713zm-104.246 46.457c-9.437.608-18.972 3.672-27.573 9.367-7.119 4.713-12.828 10.719-16.991 17.441 8.853-.728 17.579-1.906 26.154-3.512 5.225-7.177 11.847-13.606 19.764-18.847l.072-.048c2.049-1.354 1.025-4.558-1.426-4.401zm60.698-59.292c-12.896 4.667-24.835 13.073-34.051 24.939-11.753 15.133-16.958 33.164-15.962 50.402 9.993-3.125 19.723-6.847 29.147-11.123.884-20.113 7.976-40.494 21.571-57.998.646-.832 1.301-1.65 1.966-2.456 1.559-1.887-.368-4.597-2.671-3.764zm-253.04 0c-2.302-.833-4.23 1.877-2.671 3.766.665.806 1.321 1.624 1.966 2.456 13.595 17.503 20.686 37.884 21.571 57.998 9.425 4.276 19.154 7.997 29.147 11.123.997-17.239-4.208-35.27-15.962-50.402-9.216-11.867-21.155-20.273-34.051-24.941zm88.271 68.659c-8.601-5.695-18.136-8.758-27.573-9.367-2.451-.158-3.476 3.047-1.427 4.4.024.016.048.032.072.048 7.917 5.241 14.539 11.67 19.764 18.847 8.575 1.606 17.301 2.785 26.154 3.512-4.162-6.721-9.871-12.727-16.99-17.44zm-129.06-59.537c-2.271-.934-4.268 1.775-2.759 3.713.018.023.035.045.053.068 4.49 5.781 8.026 11.985 10.627 18.406 8.228 6.555 16.868 12.613 25.876 18.13-1.746-7.931-5.281-15.687-10.669-22.623-6.328-8.146-14.382-14.098-23.128-17.694zm66.459-163.29c-50.176 0-91.556-35.373-97.41-81.015-.298-2.32-3.438-2.865-4.495-.778-4.507 8.896-7.03 18.85-7.03 29.357 0 37.778 32.609 68.404 72.833 68.404 15.024 0 28.986-4.273 40.583-11.595 2.071-1.307 1.112-4.492-1.335-4.419-1.045.03-2.093.046-3.146.046zm20.971-37.894c-36.568 0-66.85-25.276-72.12-58.241-.376-2.354-3.561-2.812-4.546-.64-2.772 6.113-4.306 12.841-4.306 19.905 0 28.081 24.238 50.845 54.137 50.845 10.315 0 19.956-2.71 28.161-7.412 2.131-1.221 1.216-4.459-1.24-4.457-.029 0-.057 0-.086 0zm154.073-151.91c-6.041 11.993-7.376 25.998-2.572 39.179 2.419 6.637 6.164 12.433 10.862 17.227 1.668 1.703 4.504.183 4.051-2.158-3.063-15.847-.018-32.007 7.828-45.889-6.596-2.796-13.321-5.554-20.169-8.359zm-40.257 58.153c1.708 1.599 4.472.011 3.957-2.271-5.168-22.906-.729-46.466 11.121-66.332-8.763-3.731-17.706-7.686-26.821-12.019-9.349 16.716-11.746 36.701-4.914 55.446 3.598 9.873 9.376 18.362 16.657 25.176zm-116.421-1.748c4.698-4.794 8.443-10.59 10.862-17.227 4.804-13.181 3.469-27.186-2.572-39.179-6.849 2.806-13.573 5.563-20.17 8.358 7.846 13.882 10.892 30.042 7.828 45.889-.452 2.342 2.384 3.862 4.052 2.159zm44.59-.522c-.515 2.282 2.249 3.869 3.957 2.271 7.281-6.814 13.06-15.303 16.658-25.175 6.832-18.745 4.435-38.73-4.914-55.446-9.115 4.333-18.058 8.288-26.821 12.019 11.849 19.865 16.288 43.425 11.12 66.331zm135.598 133.874c-2.448-.072-3.406 3.112-1.335 4.419 11.597 7.322 25.559 11.595 40.583 11.595 40.225 0 72.833-30.626 72.833-68.404 0-10.507-2.523-20.461-7.03-29.357-1.057-2.087-4.197-1.542-4.495.778-5.855 45.642-47.234 81.015-97.41 81.015-1.053.001-2.101-.015-3.146-.046zm-17.911-37.847c-2.456-.003-3.371 3.235-1.24 4.457 8.205 4.703 17.846 7.412 28.161 7.412 29.899 0 54.137-22.764 54.137-50.845 0-7.064-1.534-13.792-4.306-19.905-.985-2.171-4.169-1.714-4.546.64-5.27 32.965-35.552 58.241-72.12 58.241-.029 0-.057 0-.086 0z" fill="#495959"/><path d="m18.822 462.634c-3.162-2.482-3.813-7.043-1.425-10.317 20.207-27.703 45.329-50.622 74.667-68.123 30.369-18.115 63.727-29.465 99.146-33.734 4.113-.495 7.848 2.436 8.344 6.549.496 4.112-2.436 7.848-6.549 8.343-65.222 7.861-124.812 42.781-163.491 95.804-2.441 3.347-7.133 4.08-10.479 1.639-.072-.051-.144-.106-.213-.161zm162.929-124.9c.397-4.22-2.774-7.909-7.002-8.209-27.334-1.941-54.532.57-81.135 7.513-33.054 8.627-63.57 23.633-90.7 44.604-3.206 2.477-3.853 7.039-1.508 10.304.052.072.105.144.16.215 2.533 3.278 7.244 3.882 10.521 1.348 46.041-35.586 103.9-52.922 161.611-48.983 4.089.28 7.669-2.711 8.053-6.792zm311.427 124.9c3.162-2.482 3.813-7.043 1.425-10.317-20.207-27.703-45.329-50.622-74.667-68.123-30.369-18.115-63.727-29.465-99.146-33.734-4.113-.495-7.848 2.436-8.344 6.549-.496 4.112 2.436 7.848 6.548 8.343 65.222 7.861 124.812 42.781 163.491 95.804 2.441 3.347 7.133 4.08 10.479 1.639.073-.051.145-.106.214-.161zm-162.929-124.9c.384 4.081 3.963 7.072 8.053 6.793 57.711-3.939 115.57 13.397 161.611 48.983 3.277 2.534 7.988 1.93 10.521-1.348.055-.071.109-.143.16-.215 2.345-3.265 1.698-7.827-1.508-10.304-27.13-20.97-57.646-35.977-90.7-44.604-26.603-6.943-53.802-9.454-81.135-7.513-4.228.299-7.398 3.987-7.002 8.208z" fill="#b4d2d7"/></g></svg>