<svg id="Capa_1" enable-background="new 0 0 513.011 513.011" height="512" viewBox="0 0 513.011 513.011" width="512" xmlns="http://www.w3.org/2000/svg"><g><g><g><circle cx="209.11" cy="235.264" fill="#beebeb" r="201.11"/></g><g><path d="m268.102 409.559c-111.07 0-201.11-90.04-201.11-201.11 0-69.769 35.54-131.223 89.491-167.292-85.536 23.139-148.483 101.252-148.483 194.107 0 111.07 90.04 201.11 201.11 201.11 41.301 0 79.682-12.467 111.619-33.819-16.78 4.54-34.412 7.004-52.627 7.004z" fill="#00d2dc"/></g><g><path d="m334.306 257.179-.898 1.077c-15.791 18.949-43.329 22.943-63.853 9.261l-11.299-7.533c-10.692-7.128-25.013.537-25.013 13.387v41.161c0 11.649-7.683 26.128-16.158 38.557-10.684 15.667-5.116 37.155 11.593 46.123 50.526 27.118 145.874 74.731 200.418 79.341 33.766 2.854 64.345-15.021 74.31-45.291 3.703-11.25.834-23.661-7.334-32.237l-137.755-144.642c-6.633-6.964-17.854-6.592-24.011.796z" fill="#00d2dc"/></g><g><path d="m448.738 473.493c-58.607-13.649-119.456-56.058-184.724-101.82-9.488-6.652-21.388-8.883-32.643-6.128l-18.238 4.464s-1.163 20.236 15.546 29.204c50.526 27.118 145.874 74.732 200.418 79.342 10.531.89 20.752-.238 30.134-3.128-3.492-.504-6.99-1.118-10.493-1.934z" fill="#0096d2"/></g><g><path d="m399.722 171.156c-12.159 1.246-21.68 11.398-21.68 23.886 0 13.328 10.805 24.133 24.133 24.133 2.545 0 4.95-.502 7.252-1.232-1.384-16.225-4.696-31.89-9.705-46.787z" fill="#00d2dc"/></g><g><circle cx="136.71" cy="195.042" fill="#0096d2" r="24.133"/></g><g><circle cx="154.182" cy="183.604" fill="#fff" r="12.067"/></g></g><g fill="#283c64"><path d="m501.864 395.508-93.136-97.792c6.297-20.145 9.492-41.135 9.492-62.451 0-115.304-93.807-209.11-209.11-209.11s-209.11 93.806-209.11 209.109 93.806 209.11 209.11 209.11c23.328 0 46.207-3.821 68.054-11.338 50.349 24.504 111.146 50.099 151.258 53.489 2.624.222 5.229.332 7.814.332 15.535-.001 30.292-3.981 43.067-11.675 15.279-9.201 26.241-22.832 31.701-39.418 4.626-14.054 1.124-29.479-9.14-40.256zm-107.444-214.6c2.87 9.769 4.995 19.853 6.292 30.193-8.211-.743-14.669-7.657-14.669-16.059-.001-5.987 3.339-11.356 8.377-14.134zm-185.31 247.466c-106.481 0-193.11-86.629-193.11-193.11s86.629-193.11 193.11-193.11c81.943 0 152.119 51.307 180.116 123.48-11.424 5.049-19.184 16.523-19.184 29.408 0 17.672 14.341 32.055 31.996 32.13.111 2.685.182 5.38.182 8.092 0 16.658-2.114 33.094-6.282 49.022l-31.829-33.42c-4.733-4.97-11.378-7.685-18.241-7.463-6.859.227-13.314 3.382-17.708 8.654 0 0-.001.001-.002.002l-.896 1.076c-13.205 15.846-36.106 19.168-53.27 7.726l-11.299-7.533c-7.405-4.937-16.881-5.396-24.729-1.195-7.847 4.2-12.722 12.338-12.722 21.238v41.162c0 5.654-2.562 16.15-14.767 34.049-6.296 9.233-8.376 20.79-5.706 31.708 2.714 11.097 10.049 20.563 20.125 25.971 9.212 4.944 19.793 10.505 31.272 16.332-15.306 3.834-31.065 5.781-47.056 5.781zm23.351-36.211c-6.083-3.265-10.512-8.979-12.149-15.674-.051-.21-.091-.419-.137-.629 7.457-2.615 24.352-7.268 34.722-.236 3.786 2.567 7.823 5.332 12.091 8.254 36.468 24.972 87.689 60.032 143.42 83.602-30.041-6.584-84.508-25.167-177.947-75.317zm263.345 38.598c-5.867 17.823-19.863 30.893-37.799 36.721-69.443-19.761-137.096-66.072-181.978-96.806-4.289-2.937-8.347-5.715-12.151-8.295-12.688-8.605-29.178-6.951-40.601-4.137.138-.217.273-.435.418-.649 11.644-17.076 17.548-31.564 17.548-43.063v-41.162c0-4.373 2.988-6.444 4.272-7.132.73-.391 2.138-.991 3.885-.991 1.326 0 2.848.346 4.418 1.393l11.299 7.533c23.983 15.99 55.983 11.347 74.438-10.797l.896-1.076c1.498-1.796 3.609-2.829 5.947-2.906 2.338-.068 4.513.813 6.125 2.506l137.755 144.642c6.188 6.498 8.306 15.778 5.528 24.219z"/><path d="m296.687 317.607-12.066-10.055c-3.396-2.828-8.439-2.371-11.268 1.024-2.828 3.395-2.37 8.439 1.024 11.268l12.066 10.055c1.496 1.246 3.312 1.854 5.117 1.854 2.292 0 4.568-.98 6.15-2.878 2.829-3.395 2.371-8.44-1.023-11.268z"/><path d="m160.844 187.042c-4.418 0-8 3.582-8 8 0 8.896-7.237 16.133-16.133 16.133s-16.133-7.237-16.133-16.133 7.237-16.133 16.133-16.133c1.196 0 4.32 1.032 4.32 1.032.78.239 1.569.353 2.345.353 3.424 0 6.592-2.216 7.646-5.66 1.293-4.225-1.083-8.698-5.308-9.991l-30.795-9.427c-4.222-1.292-8.698 1.083-9.991 5.308s1.083 8.698 5.308 9.991l4.292 1.314c-6.124 5.854-9.95 14.093-9.95 23.214 0 17.718 14.415 32.133 32.133 32.133s32.133-14.415 32.133-32.133c0-4.419-3.582-8.001-8-8.001z"/></g></g></svg>