<svg fill="#000000" xmlns="http://www.w3.org/2000/svg" viewBox="0 0 50 50" width="50px" height="50px"><path d="M 24.371094 2.984375 C 24.15625 2.972656 23.953125 2.972656 23.757813 2.984375 C 22.972656 3.042969 22.324219 3.355469 21.898438 3.773438 C 21.648438 4.015625 21.492188 4.277344 21.375 4.53125 C 18.917969 4.050781 17.015625 4 17.015625 4 L 17 4 C 6.429688 4 3 9.046875 3 12 C 3 14.238281 3.652344 16.449219 4.769531 18.589844 C 4.214844 20.472656 3 25.332031 3 32 C 3 36.386719 6.832031 40.027344 10.957031 42.667969 C 13.023438 43.984375 15.199219 45.054688 17.140625 45.804688 C 19.078125 46.554688 20.730469 47 22 47 C 24.113281 47 26.636719 45.953125 29.382813 44.300781 C 32.03125 42.710938 34.839844 40.511719 37.414063 37.984375 C 37.605469 37.988281 37.804688 38 37.996094 38 C 38.007813 38 40.203125 38.042969 42.441406 36.941406 C 44.6875 35.839844 47 33.390625 47 29 L 47 28.984375 C 47 28.984375 46.90625 21.160156 40.953125 15.210938 C 40.722656 11.359375 38.863281 8.710938 36.539063 7.164063 C 34.160156 5.585938 31.425781 5.078125 29.308594 5.039063 C 27.921875 4.070313 26.601563 3.511719 26.582031 3.507813 C 25.734375 3.195313 25.007813 3.023438 24.371094 2.984375 Z M 23.90625 4.980469 C 24.292969 4.953125 24.945313 5.027344 25.902344 5.382813 C 25.914063 5.390625 25.925781 5.394531 25.9375 5.398438 C 25.9375 5.398438 27.0625 5.765625 28.390625 6.789063 C 28.566406 6.925781 28.78125 7 29 7 C 30.8125 7 33.402344 7.484375 35.433594 8.832031 C 37.460938 10.179688 39 12.292969 39 16 C 39 16.003906 39 16.011719 39 16.015625 C 39.007813 16.304688 38.972656 16.441406 38.789063 16.597656 C 38.605469 16.757813 38.113281 17 37 17 C 33.953125 17 31.761719 15.539063 30.25 13.648438 C 28.738281 11.757813 28 9.390625 28 8.0625 C 28.007813 7.699219 27.816406 7.363281 27.507813 7.183594 C 27.195313 7 26.808594 7 26.496094 7.183594 C 26.1875 7.363281 25.996094 7.699219 26 8.0625 C 26 8.664063 26.242188 9.386719 26.40625 10.078125 C 24.242188 8.925781 23.476563 7.804688 23.195313 7.054688 C 23.054688 6.679688 23.03125 6.382813 23.03125 6.1875 C 23.035156 5.996094 23.046875 5.984375 23.046875 5.984375 C 23.078125 5.886719 23.09375 5.78125 23.09375 5.679688 C 23.09375 5.679688 23.117188 5.375 23.296875 5.195313 C 23.390625 5.109375 23.515625 5.007813 23.90625 4.980469 Z M 16.992188 6 C 16.996094 6 18.761719 6.050781 21.058594 6.507813 C 21.082031 6.871094 21.144531 7.28125 21.324219 7.757813 C 21.800781 9.03125 22.988281 10.546875 25.519531 11.878906 L 25.523438 11.878906 C 25.523438 11.882813 25.527344 11.882813 25.527344 11.886719 C 25.535156 11.886719 26.695313 12.507813 27.515625 12.855469 C 27.886719 13.542969 28.167969 14.242188 28.6875 14.894531 C 30.488281 17.148438 33.300781 19 37 19 C 38.390625 19 39.402344 18.714844 40.097656 18.109375 C 40.257813 17.972656 40.386719 17.820313 40.5 17.660156 C 44.894531 22.824219 45 29 45 29.007813 C 44.996094 32.734375 43.3125 34.285156 41.558594 35.152344 C 39.804688 36.015625 38.015625 36 38.015625 36 L 38 36 C 31.898438 36 23.488281 32.84375 16.738281 28.199219 C 9.988281 23.554688 5 17.449219 5 12 C 5 10.824219 7.070313 6.003906 16.992188 6 Z M 6.21875 20.957031 C 6.738281 21.695313 7.308594 22.421875 7.929688 23.136719 C 7.800781 23.621094 7.371094 25.277344 6.726563 27.175781 C 6.351563 28.277344 5.925781 29.371094 5.53125 30.128906 C 5.34375 30.488281 5.167969 30.746094 5.039063 30.898438 C 5.035156 30.890625 5.035156 30.886719 5.03125 30.878906 C 5.125 26.558594 5.710938 23.128906 6.21875 20.957031 Z M 9.53125 24.859375 C 10.171875 25.5 10.851563 26.121094 11.558594 26.730469 C 11.132813 27.457031 10.472656 28.644531 9.859375 30.296875 C 9.421875 31.476563 9.066406 32.753906 9.039063 34.015625 C 9.015625 35.277344 9.363281 36.605469 10.421875 37.488281 C 10.84375 37.84375 11.414063 38.027344 11.933594 38 C 12.988281 37.941406 13.773438 37.308594 14.519531 36.582031 C 15.265625 35.855469 15.957031 34.957031 16.570313 34.070313 C 17.269531 33.0625 17.796875 32.175781 18.175781 31.503906 C 18.875 31.925781 19.589844 32.316406 20.308594 32.707031 C 19.945313 33.273438 19.464844 34.050781 18.984375 34.921875 C 18.015625 36.667969 16.980469 38.675781 17 40.503906 C 17.007813 41.164063 17.242188 41.839844 17.738281 42.3125 C 18.238281 42.785156 18.9375 43 19.667969 43 C 20.75 43 21.511719 42.386719 22.363281 41.675781 C 23.21875 40.964844 24.09375 40.0625 24.890625 39.167969 C 26.230469 37.667969 27.1875 36.40625 27.527344 35.957031 C 28.328125 36.242188 29.132813 36.503906 29.929688 36.734375 L 26.546875 40.3125 C 26.417969 40.417969 25.972656 40.796875 25.558594 41.4375 C 25.320313 41.808594 25.089844 42.261719 25.015625 42.816406 C 24.957031 43.234375 25.015625 43.71875 25.21875 44.164063 C 23.925781 44.691406 22.792969 45 22 45 C 21.269531 45 19.671875 44.640625 17.859375 43.9375 C 16.046875 43.238281 13.972656 42.222656 12.035156 40.984375 C 8.570313 38.765625 5.679688 35.84375 5.109375 33 C 5.113281 33 5.121094 33 5.125 33 C 5.789063 33 6.203125 32.621094 6.507813 32.277344 C 6.8125 31.929688 7.0625 31.519531 7.304688 31.058594 C 7.785156 30.128906 8.226563 28.972656 8.617188 27.824219 C 8.984375 26.746094 9.296875 25.695313 9.53125 24.859375 Z M 13.121094 28.019531 C 13.921875 28.652344 14.753906 29.261719 15.605469 29.847656 C 15.894531 30.046875 16.199219 30.226563 16.492188 30.417969 C 16.140625 31.046875 15.632813 31.90625 14.925781 32.933594 C 14.355469 33.753906 13.714844 34.570313 13.125 35.148438 C 12.53125 35.726563 11.972656 35.992188 11.820313 36 C 11.753906 36.003906 11.777344 36.015625 11.703125 35.957031 C 11.21875 35.550781 11.019531 34.953125 11.039063 34.058594 C 11.058594 33.160156 11.339844 32.046875 11.734375 30.996094 C 12.191406 29.757813 12.710938 28.757813 13.121094 28.019531 Z M 22.09375 33.632813 C 23.246094 34.203125 24.402344 34.75 25.566406 35.21875 C 25.0625 35.875 24.347656 36.773438 23.402344 37.832031 C 22.636719 38.6875 21.8125 39.535156 21.089844 40.136719 C 20.363281 40.738281 19.671875 41 19.667969 41 C 19.308594 41 19.171875 40.914063 19.113281 40.859375 C 19.058594 40.804688 19.003906 40.726563 19 40.480469 C 18.988281 39.59375 19.824219 37.535156 20.734375 35.890625 C 21.273438 34.917969 21.742188 34.171875 22.09375 33.632813 Z M 32.152344 37.296875 C 33.027344 37.492188 33.890625 37.644531 34.734375 37.761719 C 32.632813 39.671875 30.417969 41.347656 28.351563 42.589844 C 27.898438 42.859375 27.464844 43.082031 27.027344 43.3125 C 26.996094 43.242188 26.984375 43.179688 27 43.085938 C 27.015625 42.949219 27.101563 42.738281 27.234375 42.53125 C 27.507813 42.113281 27.902344 41.777344 27.902344 41.777344 L 27.953125 41.734375 Z"/></svg>